<svg xmlns="http://www.w3.org/2000/svg" viewBox="0 0 520 560" role="img" aria-label="Portrait illustration placeholder">
  <defs>
    <linearGradient id="avatarBg" x1="0" y1="0" x2="1" y2="1">
      <stop offset="0%" stop-color="#6C5CE7"/>
      <stop offset="100%" stop-color="#4834D4"/>
    </linearGradient>
    <linearGradient id="avatarSkin" x1="0" y1="0" x2="0" y2="1">
      <stop offset="0%" stop-color="#FFD9B3"/>
      <stop offset="100%" stop-color="#F5B98A"/>
    </linearGradient>
  </defs>
  <path fill="url(#avatarBg)" d="M260 20c130 0 230 100 230 230 0 40-8 76-24 112-18 40-46 74-84 96-30 18-62 26-96 26-8 0-16 0-24-2-56-8-104-38-138-82-32-42-48-92-48-146C76 122 168 20 260 20z"/>
  <circle cx="260" cy="330" r="120" fill="#2D2B55" opacity="0.08"/>
  <rect x="180" y="300" width="160" height="220" rx="80" fill="#3B3B58"/>
  <path d="M175 300c0 55 38 100 85 100s85-45 85-100" fill="none" stroke="#2D2B55" stroke-width="0" />
  <circle cx="260" cy="230" r="98" fill="url(#avatarSkin)"/>
  <path d="M164 210c0-58 43-105 96-105s96 47 96 105c0 8-1 16-2 24-10-6-22-10-34-10-10-18-30-30-52-30h-16c-22 0-42 12-52 30-12 0-24 4-34 10-1-8-2-16-2-24z" fill="#2D2B55"/>
  <ellipse cx="222" cy="235" rx="8" ry="10" fill="#2D2B55"/>
  <ellipse cx="300" cy="235" rx="8" ry="10" fill="#2D2B55"/>
  <path d="M232 272c10 10 46 10 56 0" stroke="#B9713F" stroke-width="6" stroke-linecap="round" fill="none"/>
  <path d="M180 330c30 26 70 40 80 40s50-14 80-40c34 20 56 56 60 98H120c4-42 26-78 60-98z" fill="#20B2AA"/>
  <path d="M232 330l28 34 28-34" stroke="#1a9089" stroke-width="10" fill="none" stroke-linecap="round" stroke-linejoin="round"/>
  <circle cx="80" cy="90" r="14" fill="#FFD166" opacity="0.9"/>
  <circle cx="450" cy="120" r="10" fill="#20B2AA" opacity="0.9"/>
  <circle cx="70" cy="440" r="16" fill="#FF7675" opacity="0.85"/>
</svg>
